<svg width="20" height="16" viewBox="0 0 20 16" fill="none" xmlns="http://www.w3.org/2000/svg">
<path d="M19.6387 2.45149L17.8839 0.696688C17.6433 0.455892 17.3507 0.335449 17.0067 0.335449C16.6624 0.335449 16.3698 0.455892 16.1291 0.696688L7.66451 9.17411L3.87094 5.36761C3.63006 5.12673 3.3376 5.00642 2.99363 5.00642C2.64943 5.00642 2.35698 5.12673 2.11609 5.36761L0.361284 7.12247C0.120398 7.36331 0 7.65585 0 8C0 8.34389 0.120398 8.6367 0.361284 8.8775L5.03217 13.5483L6.78711 15.3031C7.02786 15.5441 7.3204 15.6644 7.66451 15.6644C8.00849 15.6644 8.30103 15.5438 8.54192 15.3031L10.2968 13.5483L19.6387 4.20644C19.8794 3.96555 20 3.67305 20 3.3289C20.0002 2.98492 19.8794 2.69238 19.6387 2.45149Z" fill="#00C3BC"/>
</svg>
