<svg width="114" height="128" viewBox="0 0 114 128" fill="none" xmlns="http://www.w3.org/2000/svg">
<g clip-path="url(#clip0)">
<path d="M43.3933 -2.99999L27.4128 12.9805L28.1907 13.7583L44.1711 -2.22218L43.3933 -2.99999Z" fill="#8B99CA"/>
<path d="M50.3601 3.81304L29.7834 24.3896L30.5613 25.1675L51.1379 4.59085L50.3601 3.81304Z" fill="#8B99CA"/>
<path d="M18.2627 49.5537L16 51.8164L16.7778 52.5942L19.0405 50.3315L18.2627 49.5537Z" fill="#8B99CA"/>
<path d="M32.0254 35.8316L25.1665 42.6914L25.9444 43.4692L32.8033 36.6094L32.0254 35.8316Z" fill="#8B99CA"/>
<path d="M61.6802 6.17628L34.3154 33.5449L35.0933 34.3227L62.4581 6.95409L61.6802 6.17628Z" fill="#8B99CA"/>
<path d="M29.7238 51.7354L18.2688 63.1904L19.0466 63.9682L30.5016 52.5132L29.7238 51.7354Z" fill="#8B99CA"/>
<path d="M68.4993 12.9473L34.2756 47.1709L35.0534 47.9487L69.2771 13.7251L68.4993 12.9473Z" fill="#8B99CA"/>
<path d="M36.5884 58.6531L25.2041 70.0391L25.982 70.8169L37.3663 59.431L36.5884 58.6531Z" fill="#8B99CA"/>
<path d="M75.3001 19.8872L45.6726 49.5146L46.4504 50.2925L76.0779 20.665L75.3001 19.8872Z" fill="#8B99CA"/>
<path d="M79.908 15.2158L77.6453 17.4785L78.4231 18.2563L80.6858 15.9936L79.908 15.2158Z" fill="#8B99CA"/>
<path d="M91.3027 17.5405L50.2202 58.623L50.998 59.4009L92.0805 18.3183L91.3027 17.5405Z" fill="#8B99CA"/>
<path d="M46.6382 75.8701L44.3755 78.1328L45.1533 78.9106L47.416 76.6479L46.6382 75.8701Z" fill="#8B99CA"/>
<path d="M99.2061 23.3327L49.002 73.5439L49.7799 74.3218L99.984 24.1106L99.2061 23.3327Z" fill="#8B99CA"/>
<path d="M37.5213 98.6543L35.2585 100.917L36.0364 101.695L38.2991 99.4321L37.5213 98.6543Z" fill="#8B99CA"/>
<path d="M108.309 27.8896L48.9832 87.2236L49.7611 88.0014L109.087 28.6674L108.309 27.8896Z" fill="#8B99CA"/>
<path d="M48.9351 100.952L46.6724 103.215L47.4502 103.993L49.7129 101.73L48.9351 100.952Z" fill="#8B99CA"/>
<path d="M60.3865 89.4819L51.2649 98.6035L52.0427 99.3813L61.1643 90.2597L60.3865 89.4819Z" fill="#8B99CA"/>
<path d="M64.9785 85.0117L62.7158 87.2744L63.4936 88.0522L65.7563 85.7895L64.9785 85.0117Z" fill="#8B99CA"/>
<path d="M83.175 66.6856L67.1946 82.666L67.9724 83.4438L83.9529 67.4634L83.175 66.6856Z" fill="#8B99CA"/>
<path d="M87.7249 62.1484L85.4622 64.4111L86.24 65.1889L88.5027 62.9262L87.7249 62.1484Z" fill="#8B99CA"/>
<path d="M92.3596 57.6045L90.0969 59.8672L90.8747 60.645L93.1375 58.3823L92.3596 57.6045Z" fill="#8B99CA"/>
<path d="M110.644 39.2588L96.9265 52.9766L97.7043 53.7544L111.422 40.0366L110.644 39.2588Z" fill="#8B99CA"/>
<path d="M58.1352 105.44L53.5391 110.037L54.317 110.815L58.9131 106.218L58.1352 105.44Z" fill="#8B99CA"/>
<path d="M62.6316 100.942L60.3689 103.205L61.1467 103.983L63.4094 101.72L62.6316 100.942Z" fill="#8B99CA"/>
<path d="M108.337 55.2427L103.741 59.8389L104.519 60.6167L109.115 56.0205L108.337 55.2427Z" fill="#8B99CA"/>
<path d="M112.851 50.751L110.589 53.0137L111.366 53.7915L113.629 51.5288L112.851 50.751Z" fill="#8B99CA"/>
<path d="M60.3899 116.955L55.7937 121.551L56.5715 122.329L61.1677 117.732L60.3899 116.955Z" fill="#8B99CA"/>
<path d="M74.1055 103.215L67.2466 110.075L68.0245 110.853L74.8834 103.993L74.1055 103.215Z" fill="#8B99CA"/>
<path d="M83.1878 107.846L80.925 110.109L81.703 110.887L83.9657 108.624L83.1878 107.846Z" fill="#8B99CA"/>
<g clip-path="url(#clip1)">
<path d="M99.132 82.6968C95.7569 90.0257 89.8745 96.0046 83.4134 100.344C81.2919 101.791 79.074 103.044 76.9524 104.201C69.5271 107.866 62.1017 109.409 57.7622 108.059C58.5337 109.409 60.1731 112.398 59.498 112.88C59.1123 113.17 57.9551 111.82 56.1229 111.241C54.4835 110.662 52.0727 110.855 52.0727 110.18C52.0727 109.119 54.9657 108.059 56.4122 107.577C47.3475 103.334 35.9684 80.6717 40.9829 61.6744C42.6223 55.5991 45.1295 50.5846 48.4082 46.6309C57.3765 35.4446 71.07 32.0695 81.2919 34.5767C82.0634 34.7696 82.7384 34.9624 83.5099 35.1553C98.7463 40.8449 109.74 59.8422 99.132 82.6968Z" fill="#00C3BC"/>
<path opacity="0.4" d="M57.6648 108.059C58.4363 109.409 60.0757 112.398 59.4006 112.88C59.0149 113.17 57.8577 111.82 56.0255 111.241C54.3861 110.662 51.9753 110.855 51.9753 110.18C51.9753 109.119 54.8683 108.059 56.3148 107.577C47.2501 103.334 35.871 80.6717 40.8855 61.6744C42.5248 55.5991 45.0321 50.5846 48.3108 46.6309C45.5143 59.6493 43.1999 83.6612 60.5578 97.5475C65.3795 101.405 70.9726 103.43 76.7586 104.201C69.4297 107.866 62.1008 109.312 57.6648 108.059Z" fill="#178C88"/>
<path opacity="0.4" d="M99.1311 82.6973C95.756 90.0262 89.8736 96.005 83.4125 100.345C103.085 72.0896 91.0308 41.0382 81.3875 34.5771C82.0625 34.77 82.7375 34.9629 83.509 35.1557C98.7454 40.8453 109.739 59.8426 99.1311 82.6973Z" fill="#68F9F3"/>
</g>
</g>
<defs>
<clipPath id="clip0">
<rect width="114" height="128" fill="white"/>
</clipPath>
<clipPath id="clip1">
<rect width="80.2323" height="92.5758" fill="white" transform="translate(26.6133 33.8057)"/>
</clipPath>
</defs>
</svg>
