<svg width="165" height="174" viewBox="0 0 165 174" fill="none" xmlns="http://www.w3.org/2000/svg">
<g clip-path="url(#clip0)">
<path d="M118.136 120.295L115.536 122.888L116.403 123.752L119.003 121.159L118.136 120.295Z" fill="#8B99CA"/>
<path d="M105.39 117.886L102.876 120.393L103.743 121.257L106.257 118.75L105.39 117.886Z" fill="#8B99CA"/>
<path d="M100.436 107.816L82.7517 125.449L83.6186 126.314L101.303 108.68L100.436 107.816Z" fill="#8B99CA"/>
<path d="M80.18 128.014L77.666 130.521L78.5329 131.385L81.0468 128.878L80.18 128.014Z" fill="#8B99CA"/>
<path d="M108.012 85.1935L105.498 87.7002L106.364 88.5646L108.878 86.0579L108.012 85.1935Z" fill="#8B99CA"/>
<path d="M95.336 97.7608L72.6238 120.407L73.4907 121.272L96.2028 98.6252L95.336 97.7608Z" fill="#8B99CA"/>
<path d="M107.931 70.0482L102.903 75.0615L103.77 75.926L108.798 70.9127L107.931 70.0482Z" fill="#8B99CA"/>
<path d="M100.341 77.639L95.313 82.6523L96.1799 83.5167L101.208 78.5034L100.341 77.639Z" fill="#8B99CA"/>
<path d="M90.2132 87.7303L87.6992 90.2373L88.5662 91.1017L91.0802 88.5947L90.2132 87.7303Z" fill="#8B99CA"/>
<path d="M85.2354 92.7102L60.0093 117.863L60.8762 118.728L86.1023 93.5746L85.2354 92.7102Z" fill="#8B99CA"/>
<path d="M82.66 80.2389L52.406 110.405L53.2729 111.27L83.5269 81.1032L82.66 80.2389Z" fill="#8B99CA"/>
<path d="M95.3428 52.4504L92.8289 54.957L93.6957 55.8214L96.2097 53.3147L95.3428 52.4504Z" fill="#8B99CA"/>
<path d="M72.6591 75.1028L39.7998 107.862L40.6667 108.727L73.526 75.9673L72.6591 75.1028Z" fill="#8B99CA"/>
<path d="M29.6328 117.919L27.1189 120.426L27.9859 121.29L30.4998 118.783L29.6328 117.919Z" fill="#8B99CA"/>
<path d="M12.0337 135.596L9.51978 138.103L10.3867 138.967L12.9006 136.46L12.0337 135.596Z" fill="#8B99CA"/>
<path d="M6.9866 140.599L4.47266 143.106L5.33966 143.971L7.8536 141.464L6.9866 140.599Z" fill="#8B99CA"/>
<path d="M82.7159 49.9857L77.688 54.999L78.5549 55.8634L83.5828 50.8501L82.7159 49.9857Z" fill="#8B99CA"/>
<path d="M70.0657 62.493L67.5518 65L68.4188 65.8644L70.9327 63.3574L70.0657 62.493Z" fill="#8B99CA"/>
<path d="M65.1041 67.5841L62.5898 70.0908L63.4567 70.9553L65.971 68.4486L65.1041 67.5841Z" fill="#8B99CA"/>
<path d="M52.4014 80.1346L9.49097 122.927L10.358 123.791L53.2684 80.9989L52.4014 80.1346Z" fill="#8B99CA"/>
<path d="M77.6363 39.9375L-8.18457 125.51L-7.31769 126.374L78.5032 40.8018L77.6363 39.9375Z" fill="#8B99CA"/>
<path d="M82.2603 20.2765L79.7463 22.7832L80.6132 23.6476L83.1272 21.1409L82.2603 20.2765Z" fill="#8B99CA"/>
<path d="M61.9786 40.4796L-3.64404 105.912L-2.77717 106.776L62.8455 41.3439L61.9786 40.4796Z" fill="#8B99CA"/>
<path d="M64.501 22.7308L59.4731 27.7441L60.34 28.6085L65.3679 23.5952L64.501 22.7308Z" fill="#8B99CA"/>
<path d="M56.9756 30.3234L54.4617 32.8301L55.3285 33.6944L57.8425 31.1878L56.9756 30.3234Z" fill="#8B99CA"/>
<path d="M41.7961 45.4637L1.39966 85.7432L2.26654 86.6075L42.663 46.328L41.7961 45.4637Z" fill="#8B99CA"/>
<path d="M72.116 0.034024L67.0015 5.13379L67.8683 5.99816L72.9829 0.898391L72.116 0.034024Z" fill="#8B99CA"/>
<path d="M34.2632 37.9059L-11.1611 83.2051L-10.2941 84.0694L35.1302 38.7702L34.2632 37.9059Z" fill="#8B99CA"/>
<path d="M26.6599 30.3894L8.97559 48.0225L9.84246 48.8868L27.5268 31.2538L26.6599 30.3894Z" fill="#8B99CA"/>
<path d="M9.06814 32.8625L6.5542 35.3691L7.42108 36.2335L9.93502 33.7268L9.06814 32.8625Z" fill="#8B99CA"/>
<g clip-path="url(#clip1)">
<path d="M69.3078 61.1153C65.9424 68.4778 60.077 74.484 53.6347 78.8434C51.5193 80.2965 49.3078 81.5559 47.1924 82.7184C39.7885 86.3997 32.3847 87.9497 28.0578 86.5934C28.827 87.9497 30.4616 90.9528 29.7885 91.4371C29.4039 91.7278 28.2501 90.3715 26.4231 89.7903C24.7885 89.209 22.3847 89.4028 22.3847 88.7246C22.3847 87.659 25.2693 86.5934 26.7116 86.109C17.6731 81.8465 6.32699 59.0809 11.327 39.9965C12.9616 33.8934 15.4616 28.8559 18.7308 24.884C27.6731 13.6465 41.327 10.2559 51.5193 12.7746C52.2885 12.9684 52.9616 13.1621 53.7308 13.3559C68.9231 19.0715 79.8847 38.1559 69.3078 61.1153Z" fill="#FF940D"/>
<path opacity="0.4" d="M27.9616 86.5932C28.7308 87.9494 30.3654 90.9525 29.6923 91.4369C29.3077 91.7275 28.1539 90.3713 26.327 89.79C24.6923 89.2088 22.2885 89.4025 22.2885 88.7244C22.2885 87.6588 25.1731 86.5932 26.6154 86.1088C17.577 81.8463 6.2308 59.0807 11.2308 39.9963C12.8654 33.8932 15.3654 28.8557 18.6346 24.8838C15.8462 37.9619 13.5385 62.0838 30.8462 76.0338C35.6539 79.9088 41.2308 81.9432 47 82.7182C39.6923 86.3994 32.3847 87.8525 27.9616 86.5932Z" fill="#B4721F"/>
<path opacity="0.4" d="M69.3078 61.115C65.9424 68.4775 60.077 74.4838 53.6347 78.8432C73.2501 50.4588 61.2309 19.265 51.6155 12.7744C52.2886 12.9682 52.9616 13.1619 53.7309 13.3557C68.9232 19.0713 79.8847 38.1557 69.3078 61.115Z" fill="#FFE0B9"/>
</g>
<g clip-path="url(#clip2)">
<path d="M122.249 112.199C122.99 120.233 120.885 128.352 117.459 135.341C116.345 137.654 115.051 139.849 113.793 141.912C109.194 148.798 103.535 153.847 99.1022 154.848C100.445 155.631 103.36 157.4 103.016 158.155C102.827 158.599 101.15 158.008 99.2736 158.423C97.5646 158.742 95.5732 160.114 95.2357 159.53C94.7053 158.611 96.6803 156.246 97.692 155.105C87.7202 155.963 66.5347 142.027 61.3787 123.067C59.7608 116.986 59.4249 111.39 60.2875 106.326C62.4611 92.1547 72.6325 82.385 82.7385 79.4454C83.5031 79.2267 84.1841 79.0562 84.9486 78.8375C100.989 76.1466 120.008 87.102 122.249 112.199Z" fill="#00C3BC"/>
<path opacity="0.4" d="M99.018 154.897C100.361 155.68 103.276 157.449 102.932 158.204C102.743 158.648 101.065 158.057 99.1894 158.472C97.4804 158.791 95.489 160.163 95.1515 159.579C94.6211 158.66 96.5961 156.295 97.6077 155.154C87.6359 156.012 66.4505 142.076 61.2945 123.116C59.6766 117.035 59.3407 111.439 60.2033 106.375C64.2906 119.048 74.2922 141 96.2678 144.347C102.372 145.277 108.228 144.234 113.625 142.009C109.11 148.847 103.486 153.764 99.018 154.897Z" fill="#1D7673"/>
<path opacity="0.4" d="M122.248 112.199C122.989 120.233 120.884 128.353 117.459 135.341C120.368 101.035 94.4031 80.1712 82.8213 79.3975C83.5023 79.227 84.1833 79.0565 84.9479 78.8378C100.988 76.1469 120.007 87.1023 122.248 112.199Z" fill="#6EF1EC"/>
</g>
</g>
<defs>
<clipPath id="clip0">
<rect width="165" height="174" fill="white"/>
</clipPath>
<clipPath id="clip1">
<rect width="80" height="93" fill="white" transform="translate(-3 12)"/>
</clipPath>
<clipPath id="clip2">
<rect width="80.2323" height="92.5758" fill="white" transform="translate(35 106.116) rotate(-30)"/>
</clipPath>
</defs>
</svg>
