<svg width="14" height="11" viewBox="0 0 14 11" fill="none" xmlns="http://www.w3.org/2000/svg">
<path d="M12.9527 1.89398L11.812 0.75336C11.6556 0.596843 11.4654 0.518555 11.2418 0.518555C11.0181 0.518555 10.8278 0.596843 10.6714 0.75336L5.16943 6.26368L2.70361 3.78946C2.54704 3.63289 2.35694 3.55469 2.13336 3.55469C1.90963 3.55469 1.71953 3.63289 1.56296 3.78946L0.422334 4.93012C0.265759 5.08666 0.1875 5.27681 0.1875 5.50052C0.1875 5.72404 0.265759 5.91437 0.422334 6.07089L3.45841 9.1069L4.59912 10.2475C4.75561 10.4042 4.94576 10.4824 5.16943 10.4824C5.39302 10.4824 5.58317 10.404 5.73975 10.2475L6.88043 9.1069L12.9527 3.0347C13.1091 2.87812 13.1875 2.688 13.1875 2.4643C13.1876 2.24071 13.1091 2.05056 12.9527 1.89398Z" fill="#00C3BC"/>
</svg>
