<svg width="242" height="98" viewBox="0 0 242 98" fill="none" xmlns="http://www.w3.org/2000/svg">
<g clip-path="url(#clip0)">
<path d="M255.634 -10.2256C184.482 43.4575 106.088 71.1512 -28.9719 71.1512" stroke="#99A5B1" stroke-width="0.852113"/>
<path d="M210.539 15.9002L222.309 35.7223L226.662 27.2951L236.506 27.249L224.736 7.42684L210.539 15.9002Z" fill="#00C3BC"/>
<path d="M187.213 28.8077L197.66 49.3579L202.555 41.2337L212.382 41.832L201.934 21.2819L187.213 28.8077Z" fill="#FF940D"/>
<path d="M161.974 39.5413L170.583 60.9272L176.171 53.2627L185.907 54.7189L177.298 33.3331L161.974 39.5413Z" fill="#8B99CA"/>
<path d="M136.546 48.6204L143.825 70.4946L149.873 63.1879L159.501 65.2394L152.222 43.3652L136.546 48.6204Z" fill="#00C3BC"/>
<path d="M110.204 55.3923L115.642 77.7952L122.275 71.0156L131.7 73.8592L126.262 51.4564L110.204 55.3923Z" fill="#FF940D"/>
<path d="M83.7048 60.8382L87.9336 83.5004L94.9212 77.0863L104.18 80.4312L99.951 57.769L83.7048 60.8382Z" fill="#8B99CA"/>
<path d="M57.5441 64.6127L60.0432 87.5302L67.4968 81.6642L76.4753 85.7012L73.9762 62.7836L57.5441 64.6127Z" fill="#00C3BC"/>
<path d="M30.9945 67.1116L32.6954 90.1022L40.3483 84.4988L49.1811 88.8455L47.4802 65.8549L30.9945 67.1116Z" fill="#FF940D"/>
<path d="M4.0789 68.7015L4.41744 91.7524L12.3883 86.6113L20.9487 91.4727L20.6101 68.4217L4.0789 68.7015Z" fill="#8B99CA"/>
</g>
<defs>
<clipPath id="clip0">
<rect width="242" height="97.1408" fill="white"/>
</clipPath>
</defs>
</svg>
