<svg width="242" height="98" viewBox="0 0 242 98" fill="none" xmlns="http://www.w3.org/2000/svg">
<g clip-path="url(#clip0)">
<path d="M-13.6337 -10.2256C57.5177 43.4575 135.912 71.1512 270.972 71.1512" stroke="#99A5B1" stroke-width="0.852113"/>
<path d="M31.4614 15.9002L19.691 35.7223L15.338 27.2951L5.49377 27.249L17.2642 7.42684L31.4614 15.9002Z" fill="#00C3BC"/>
<path d="M54.7874 28.8077L44.3398 49.3579L39.4445 41.2337L29.6183 41.832L40.066 21.2819L54.7874 28.8077Z" fill="#FF940D"/>
<path d="M80.0257 39.5413L71.4172 60.9272L65.8295 53.2627L56.0934 54.7189L64.702 33.3331L80.0257 39.5413Z" fill="#8B99CA"/>
<path d="M105.454 48.6204L98.1753 70.4946L92.1273 63.1879L82.4991 65.2394L89.7777 43.3652L105.454 48.6204Z" fill="#00C3BC"/>
<path d="M131.796 55.3923L126.358 77.7952L119.725 71.0156L110.3 73.8592L115.738 51.4564L131.796 55.3923Z" fill="#FF940D"/>
<path d="M158.295 60.8382L154.066 83.5004L147.079 77.0863L137.82 80.4312L142.049 57.769L158.295 60.8382Z" fill="#8B99CA"/>
<path d="M184.456 64.6127L181.957 87.5302L174.503 81.6642L165.525 85.7012L168.024 62.7836L184.456 64.6127Z" fill="#00C3BC"/>
<path d="M211.006 67.1116L209.305 90.1022L201.652 84.4988L192.819 88.8455L194.52 65.8549L211.006 67.1116Z" fill="#FF940D"/>
<path d="M237.921 68.7015L237.583 91.7524L229.612 86.6113L221.051 91.4727L221.39 68.4217L237.921 68.7015Z" fill="#8B99CA"/>
</g>
<defs>
<clipPath id="clip0">
<rect width="242" height="97.1408" fill="white" transform="matrix(-1 0 0 1 242 0)"/>
</clipPath>
</defs>
</svg>
